<mxfile host="app.diagrams.net" modified="2024-04-23T02:53:00.725Z" agent="Mozilla/5.0 (X11; Linux x86_64; rv:126.0) Gecko/20100101 Firefox/126.0" etag="JLG6zVfXVXNui4cHPMv4" version="24.2.5" type="device">
  <diagram id="C5RBs43oDa-KdzZeNtuy" name="Page-1">
    <mxGraphModel dx="1509" dy="837" grid="1" gridSize="10" guides="1" tooltips="1" connect="1" arrows="1" fold="1" page="1" pageScale="1" pageWidth="827" pageHeight="1169" math="0" shadow="0">
      <root>
        <mxCell id="WIyWlLk6GJQsqaUBKTNV-0" />
        <mxCell id="WIyWlLk6GJQsqaUBKTNV-1" parent="WIyWlLk6GJQsqaUBKTNV-0" />
        <mxCell id="krm9d7vADcxVfsqMJkB_-36" value="&lt;div align=&quot;left&quot;&gt;«Component»&lt;br&gt;&lt;b&gt;Buchungssystem&lt;/b&gt;&lt;/div&gt;" style="html=1;dropTarget=0;whiteSpace=wrap;align=left;verticalAlign=top;" parent="WIyWlLk6GJQsqaUBKTNV-1" vertex="1">
          <mxGeometry x="960" y="330" width="1000" height="440" as="geometry" />
        </mxCell>
        <mxCell id="krm9d7vADcxVfsqMJkB_-37" value="" style="shape=module;jettyWidth=8;jettyHeight=4;" parent="krm9d7vADcxVfsqMJkB_-36" vertex="1">
          <mxGeometry x="1" width="20" height="20" relative="1" as="geometry">
            <mxPoint x="-27" y="7" as="offset" />
          </mxGeometry>
        </mxCell>
        <mxCell id="8AGIbNtnOzBg6D7uvN0T-45" style="edgeStyle=orthogonalEdgeStyle;rounded=0;orthogonalLoop=1;jettySize=auto;html=1;entryX=1;entryY=0.5;entryDx=0;entryDy=0;exitX=0.196;exitY=1.005;exitDx=0;exitDy=0;exitPerimeter=0;" edge="1" parent="WIyWlLk6GJQsqaUBKTNV-1" source="krm9d7vADcxVfsqMJkB_-7" target="krm9d7vADcxVfsqMJkB_-23">
          <mxGeometry relative="1" as="geometry" />
        </mxCell>
        <mxCell id="krm9d7vADcxVfsqMJkB_-4" value="HotelRetrieval" style="swimlane;fontStyle=1;align=center;verticalAlign=top;childLayout=stackLayout;horizontal=1;startSize=26;horizontalStack=0;resizeParent=1;resizeParentMax=0;resizeLast=0;collapsible=1;marginBottom=0;whiteSpace=wrap;html=1;" parent="WIyWlLk6GJQsqaUBKTNV-1" vertex="1">
          <mxGeometry x="1360" y="452" width="260" height="138" as="geometry" />
        </mxCell>
        <mxCell id="krm9d7vADcxVfsqMJkB_-5" value="&lt;div&gt;- db : DBAccess&lt;/div&gt;&lt;div&gt;~ cache : Cache&lt;br&gt;&lt;/div&gt;" style="text;strokeColor=none;fillColor=none;align=left;verticalAlign=top;spacingLeft=4;spacingRight=4;overflow=hidden;rotatable=0;points=[[0,0.5],[1,0.5]];portConstraint=eastwest;whiteSpace=wrap;html=1;" parent="krm9d7vADcxVfsqMJkB_-4" vertex="1">
          <mxGeometry y="26" width="260" height="34" as="geometry" />
        </mxCell>
        <mxCell id="krm9d7vADcxVfsqMJkB_-6" value="" style="line;strokeWidth=1;fillColor=none;align=left;verticalAlign=middle;spacingTop=-1;spacingLeft=3;spacingRight=3;rotatable=0;labelPosition=right;points=[];portConstraint=eastwest;strokeColor=inherit;" parent="krm9d7vADcxVfsqMJkB_-4" vertex="1">
          <mxGeometry y="60" width="260" height="8" as="geometry" />
        </mxCell>
        <mxCell id="krm9d7vADcxVfsqMJkB_-7" value="&lt;div&gt;+ openSession()&lt;/div&gt;&lt;div&gt;+ closeSession()&lt;/div&gt;&lt;div&gt;+ getAllHotels() : Hotel[]&lt;/div&gt;&lt;div&gt;+ getHotelByName(hotelName : String) : Hotel&lt;/div&gt;" style="text;strokeColor=none;fillColor=none;align=left;verticalAlign=top;spacingLeft=4;spacingRight=4;overflow=hidden;rotatable=0;points=[[0,0.5],[1,0.5]];portConstraint=eastwest;whiteSpace=wrap;html=1;" parent="krm9d7vADcxVfsqMJkB_-4" vertex="1">
          <mxGeometry y="68" width="260" height="70" as="geometry" />
        </mxCell>
        <mxCell id="8AGIbNtnOzBg6D7uvN0T-19" style="edgeStyle=orthogonalEdgeStyle;rounded=0;orthogonalLoop=1;jettySize=auto;html=1;endArrow=none;endFill=0;entryX=0.75;entryY=0;entryDx=0;entryDy=0;" edge="1" parent="WIyWlLk6GJQsqaUBKTNV-1" source="krm9d7vADcxVfsqMJkB_-8" target="krm9d7vADcxVfsqMJkB_-4">
          <mxGeometry relative="1" as="geometry">
            <Array as="points" />
          </mxGeometry>
        </mxCell>
        <mxCell id="krm9d7vADcxVfsqMJkB_-8" value="Hotel" style="swimlane;fontStyle=1;align=center;verticalAlign=top;childLayout=stackLayout;horizontal=1;startSize=26;horizontalStack=0;resizeParent=1;resizeParentMax=0;resizeLast=0;collapsible=1;marginBottom=0;whiteSpace=wrap;html=1;" parent="WIyWlLk6GJQsqaUBKTNV-1" vertex="1">
          <mxGeometry x="1700" y="350" width="160" height="140" as="geometry" />
        </mxCell>
        <mxCell id="krm9d7vADcxVfsqMJkB_-9" value="&lt;div&gt;- id : int&lt;/div&gt;&lt;div&gt;- name : String&lt;/div&gt;&lt;div&gt;- city : String&lt;br&gt;&lt;/div&gt;" style="text;strokeColor=none;fillColor=none;align=left;verticalAlign=top;spacingLeft=4;spacingRight=4;overflow=hidden;rotatable=0;points=[[0,0.5],[1,0.5]];portConstraint=eastwest;whiteSpace=wrap;html=1;" parent="krm9d7vADcxVfsqMJkB_-8" vertex="1">
          <mxGeometry y="26" width="160" height="54" as="geometry" />
        </mxCell>
        <mxCell id="krm9d7vADcxVfsqMJkB_-10" value="" style="line;strokeWidth=1;fillColor=none;align=left;verticalAlign=middle;spacingTop=-1;spacingLeft=3;spacingRight=3;rotatable=0;labelPosition=right;points=[];portConstraint=eastwest;strokeColor=inherit;" parent="krm9d7vADcxVfsqMJkB_-8" vertex="1">
          <mxGeometry y="80" width="160" height="8" as="geometry" />
        </mxCell>
        <mxCell id="krm9d7vADcxVfsqMJkB_-11" value="&lt;div&gt;+ getId() : int&lt;/div&gt;&lt;div&gt;+ getName() : String&lt;/div&gt;&lt;div&gt;+ getCity() : String&lt;br&gt;&lt;/div&gt;" style="text;strokeColor=none;fillColor=none;align=left;verticalAlign=top;spacingLeft=4;spacingRight=4;overflow=hidden;rotatable=0;points=[[0,0.5],[1,0.5]];portConstraint=eastwest;whiteSpace=wrap;html=1;" parent="krm9d7vADcxVfsqMJkB_-8" vertex="1">
          <mxGeometry y="88" width="160" height="52" as="geometry" />
        </mxCell>
        <mxCell id="krm9d7vADcxVfsqMJkB_-18" value="«interface»&lt;br&gt;&lt;b&gt;HotelSearch&lt;/b&gt;" style="swimlane;fontStyle=1;align=center;verticalAlign=top;childLayout=stackLayout;horizontal=1;startSize=40;horizontalStack=0;resizeParent=1;resizeParentMax=0;resizeLast=0;collapsible=1;marginBottom=0;whiteSpace=wrap;html=1;" parent="WIyWlLk6GJQsqaUBKTNV-1" vertex="1">
          <mxGeometry x="1640" y="590" width="260" height="110" as="geometry">
            <mxRectangle x="420" y="500" width="110" height="40" as="alternateBounds" />
          </mxGeometry>
        </mxCell>
        <mxCell id="krm9d7vADcxVfsqMJkB_-19" value="&lt;div&gt;+ openSession()&lt;/div&gt;&lt;div&gt;+ closeSession()&lt;/div&gt;&lt;div&gt;+ getAllHotels() : Hotel[]&lt;/div&gt;&lt;div&gt;+ getHotelByName(hotelName : String) : Hotel&lt;/div&gt;" style="text;strokeColor=none;fillColor=none;align=left;verticalAlign=top;spacingLeft=4;spacingRight=4;overflow=hidden;rotatable=0;points=[[0,0.5],[1,0.5]];portConstraint=eastwest;whiteSpace=wrap;html=1;" parent="krm9d7vADcxVfsqMJkB_-18" vertex="1">
          <mxGeometry y="40" width="260" height="70" as="geometry" />
        </mxCell>
        <mxCell id="krm9d7vADcxVfsqMJkB_-28" value="HotelSearchProxy" style="swimlane;fontStyle=1;align=center;verticalAlign=top;childLayout=stackLayout;horizontal=1;startSize=26;horizontalStack=0;resizeParent=1;resizeParentMax=0;resizeLast=0;collapsible=1;marginBottom=0;whiteSpace=wrap;html=1;" parent="WIyWlLk6GJQsqaUBKTNV-1" vertex="1">
          <mxGeometry x="2000" y="260" width="260" height="160" as="geometry" />
        </mxCell>
        <mxCell id="krm9d7vADcxVfsqMJkB_-29" value="- retrieval : HotelRetrieval" style="text;strokeColor=none;fillColor=none;align=left;verticalAlign=top;spacingLeft=4;spacingRight=4;overflow=hidden;rotatable=0;points=[[0,0.5],[1,0.5]];portConstraint=eastwest;whiteSpace=wrap;html=1;" parent="krm9d7vADcxVfsqMJkB_-28" vertex="1">
          <mxGeometry y="26" width="260" height="26" as="geometry" />
        </mxCell>
        <mxCell id="krm9d7vADcxVfsqMJkB_-30" value="" style="line;strokeWidth=1;fillColor=none;align=left;verticalAlign=middle;spacingTop=-1;spacingLeft=3;spacingRight=3;rotatable=0;labelPosition=right;points=[];portConstraint=eastwest;strokeColor=inherit;" parent="krm9d7vADcxVfsqMJkB_-28" vertex="1">
          <mxGeometry y="52" width="260" height="8" as="geometry" />
        </mxCell>
        <mxCell id="krm9d7vADcxVfsqMJkB_-31" value="&lt;div&gt;+ openSession()&lt;/div&gt;&lt;div&gt;+ closeSession()&lt;/div&gt;&lt;div&gt;+ getAllHotels() : Hotel[]&lt;/div&gt;&lt;div&gt;+ getHotelByName(hotelName : String) : Hotel&lt;/div&gt;&lt;div&gt;- log(String message)&lt;/div&gt;&lt;div&gt;+ printHotel(hotel : Hotel)&lt;br&gt;&lt;/div&gt;" style="text;strokeColor=none;fillColor=none;align=left;verticalAlign=top;spacingLeft=4;spacingRight=4;overflow=hidden;rotatable=0;points=[[0,0.5],[1,0.5]];portConstraint=eastwest;whiteSpace=wrap;html=1;" parent="krm9d7vADcxVfsqMJkB_-28" vertex="1">
          <mxGeometry y="60" width="260" height="100" as="geometry" />
        </mxCell>
        <mxCell id="8AGIbNtnOzBg6D7uvN0T-43" style="edgeStyle=orthogonalEdgeStyle;rounded=0;orthogonalLoop=1;jettySize=auto;html=1;entryX=1;entryY=0.5;entryDx=0;entryDy=0;endArrow=open;endFill=0;" edge="1" parent="WIyWlLk6GJQsqaUBKTNV-1" source="krm9d7vADcxVfsqMJkB_-0" target="8AGIbNtnOzBg6D7uvN0T-33">
          <mxGeometry relative="1" as="geometry" />
        </mxCell>
        <mxCell id="krm9d7vADcxVfsqMJkB_-0" value="DBAccess" style="swimlane;fontStyle=1;align=center;verticalAlign=top;childLayout=stackLayout;horizontal=1;startSize=26;horizontalStack=0;resizeParent=1;resizeParentMax=0;resizeLast=0;collapsible=1;marginBottom=0;whiteSpace=wrap;html=1;" parent="WIyWlLk6GJQsqaUBKTNV-1" vertex="1">
          <mxGeometry x="1025" y="410" width="290" height="160" as="geometry" />
        </mxCell>
        <mxCell id="krm9d7vADcxVfsqMJkB_-1" value="&lt;div&gt;+ HOTEL : int = 0&lt;/div&gt;&lt;div&gt;+ AUTO : int = 1&lt;/div&gt;&lt;div&gt;- url : String&lt;/div&gt;&lt;div&gt;- conn : Connection&lt;br&gt;&lt;/div&gt;&lt;div&gt;&lt;br&gt;&lt;/div&gt;" style="text;strokeColor=none;fillColor=none;align=left;verticalAlign=top;spacingLeft=4;spacingRight=4;overflow=hidden;rotatable=0;points=[[0,0.5],[1,0.5]];portConstraint=eastwest;whiteSpace=wrap;html=1;" parent="krm9d7vADcxVfsqMJkB_-0" vertex="1">
          <mxGeometry y="26" width="290" height="64" as="geometry" />
        </mxCell>
        <mxCell id="krm9d7vADcxVfsqMJkB_-2" value="" style="line;strokeWidth=1;fillColor=none;align=left;verticalAlign=middle;spacingTop=-1;spacingLeft=3;spacingRight=3;rotatable=0;labelPosition=right;points=[];portConstraint=eastwest;strokeColor=inherit;" parent="krm9d7vADcxVfsqMJkB_-0" vertex="1">
          <mxGeometry y="90" width="290" height="8" as="geometry" />
        </mxCell>
        <mxCell id="krm9d7vADcxVfsqMJkB_-3" value="&lt;div&gt;+ openConnection()&lt;/div&gt;&lt;div&gt;+ closeConnection()&lt;/div&gt;&lt;div&gt;+ getObjects(type : int, value : String) : List&amp;lt;String&amp;gt;&lt;br&gt;&lt;/div&gt;" style="text;strokeColor=none;fillColor=none;align=left;verticalAlign=top;spacingLeft=4;spacingRight=4;overflow=hidden;rotatable=0;points=[[0,0.5],[1,0.5]];portConstraint=eastwest;whiteSpace=wrap;html=1;" parent="krm9d7vADcxVfsqMJkB_-0" vertex="1">
          <mxGeometry y="98" width="290" height="62" as="geometry" />
        </mxCell>
        <mxCell id="krm9d7vADcxVfsqMJkB_-23" value="Cache" style="swimlane;fontStyle=1;align=center;verticalAlign=top;childLayout=stackLayout;horizontal=1;startSize=26;horizontalStack=0;resizeParent=1;resizeParentMax=0;resizeLast=0;collapsible=1;marginBottom=0;whiteSpace=wrap;html=1;" parent="WIyWlLk6GJQsqaUBKTNV-1" vertex="1">
          <mxGeometry x="1030" y="600" width="280" height="150" as="geometry" />
        </mxCell>
        <mxCell id="krm9d7vADcxVfsqMJkB_-24" value="- cache : org.hbrs.ooka.uebung1.cache.Cache" style="text;strokeColor=none;fillColor=none;align=left;verticalAlign=top;spacingLeft=4;spacingRight=4;overflow=hidden;rotatable=0;points=[[0,0.5],[1,0.5]];portConstraint=eastwest;whiteSpace=wrap;html=1;" parent="krm9d7vADcxVfsqMJkB_-23" vertex="1">
          <mxGeometry y="26" width="280" height="26" as="geometry" />
        </mxCell>
        <mxCell id="krm9d7vADcxVfsqMJkB_-25" value="" style="line;strokeWidth=1;fillColor=none;align=left;verticalAlign=middle;spacingTop=-1;spacingLeft=3;spacingRight=3;rotatable=0;labelPosition=right;points=[];portConstraint=eastwest;strokeColor=inherit;" parent="krm9d7vADcxVfsqMJkB_-23" vertex="1">
          <mxGeometry y="52" width="280" height="8" as="geometry" />
        </mxCell>
        <mxCell id="krm9d7vADcxVfsqMJkB_-26" value="&lt;div&gt;+ cacheResult(key : String, value : List&amp;lt;Object&amp;gt;)&lt;/div&gt;&lt;div&gt;+ get(key : String) : List&amp;lt;Object&amp;gt;&lt;/div&gt;&lt;div&gt;+ remove(key : String) : List&amp;lt;Object&amp;gt;&lt;/div&gt;&lt;div&gt;+ clear()&lt;br&gt;&lt;/div&gt;" style="text;strokeColor=none;fillColor=none;align=left;verticalAlign=top;spacingLeft=4;spacingRight=4;overflow=hidden;rotatable=0;points=[[0,0.5],[1,0.5]];portConstraint=eastwest;whiteSpace=wrap;html=1;" parent="krm9d7vADcxVfsqMJkB_-23" vertex="1">
          <mxGeometry y="60" width="280" height="90" as="geometry" />
        </mxCell>
        <mxCell id="8AGIbNtnOzBg6D7uvN0T-8" value="&amp;lt;&amp;lt;artifact&amp;gt;&amp;gt;&lt;br&gt;&lt;b&gt;Buchungssystem.jar&lt;/b&gt;&lt;br&gt;&lt;b&gt;&lt;/b&gt;" style="html=1;align=center;verticalAlign=middle;dashed=0;whiteSpace=wrap;" vertex="1" parent="WIyWlLk6GJQsqaUBKTNV-1">
          <mxGeometry x="1000" y="810" width="180" height="60" as="geometry" />
        </mxCell>
        <mxCell id="8AGIbNtnOzBg6D7uvN0T-11" style="edgeStyle=orthogonalEdgeStyle;rounded=0;orthogonalLoop=1;jettySize=auto;html=1;entryX=0.129;entryY=1.004;entryDx=0;entryDy=0;entryPerimeter=0;dashed=1;endArrow=blockThin;endFill=1;" edge="1" parent="WIyWlLk6GJQsqaUBKTNV-1" source="8AGIbNtnOzBg6D7uvN0T-8" target="krm9d7vADcxVfsqMJkB_-36">
          <mxGeometry relative="1" as="geometry" />
        </mxCell>
        <mxCell id="8AGIbNtnOzBg6D7uvN0T-13" style="edgeStyle=orthogonalEdgeStyle;rounded=0;orthogonalLoop=1;jettySize=auto;html=1;entryX=0.75;entryY=0;entryDx=0;entryDy=0;dashed=1;endArrow=block;endFill=0;exitX=0;exitY=0.75;exitDx=0;exitDy=0;" edge="1" parent="WIyWlLk6GJQsqaUBKTNV-1" source="8AGIbNtnOzBg6D7uvN0T-10" target="krm9d7vADcxVfsqMJkB_-18">
          <mxGeometry relative="1" as="geometry">
            <mxPoint x="1670" y="570" as="sourcePoint" />
          </mxGeometry>
        </mxCell>
        <mxCell id="8AGIbNtnOzBg6D7uvN0T-14" style="edgeStyle=orthogonalEdgeStyle;rounded=0;orthogonalLoop=1;jettySize=auto;html=1;dashed=1;endArrow=block;endFill=0;entryX=0.25;entryY=0;entryDx=0;entryDy=0;exitX=1.001;exitY=0.321;exitDx=0;exitDy=0;exitPerimeter=0;" edge="1" parent="WIyWlLk6GJQsqaUBKTNV-1" source="krm9d7vADcxVfsqMJkB_-7" target="krm9d7vADcxVfsqMJkB_-18">
          <mxGeometry relative="1" as="geometry" />
        </mxCell>
        <mxCell id="8AGIbNtnOzBg6D7uvN0T-15" style="edgeStyle=orthogonalEdgeStyle;rounded=0;orthogonalLoop=1;jettySize=auto;html=1;exitX=0;exitY=0.5;exitDx=0;exitDy=0;entryX=1.005;entryY=0.132;entryDx=0;entryDy=0;entryPerimeter=0;endArrow=open;endFill=0;" edge="1" parent="WIyWlLk6GJQsqaUBKTNV-1" source="8AGIbNtnOzBg6D7uvN0T-10" target="krm9d7vADcxVfsqMJkB_-7">
          <mxGeometry relative="1" as="geometry">
            <mxPoint x="1670" y="540" as="sourcePoint" />
            <Array as="points" />
          </mxGeometry>
        </mxCell>
        <mxCell id="8AGIbNtnOzBg6D7uvN0T-18" value="" style="endArrow=none;html=1;rounded=0;fillColor=#dae8fc;strokeColor=#6c8ebf;" edge="1" parent="WIyWlLk6GJQsqaUBKTNV-1">
          <mxGeometry width="50" height="50" relative="1" as="geometry">
            <mxPoint x="1990" y="500" as="sourcePoint" />
            <mxPoint x="2020" y="440" as="targetPoint" />
          </mxGeometry>
        </mxCell>
        <mxCell id="8AGIbNtnOzBg6D7uvN0T-20" style="edgeStyle=orthogonalEdgeStyle;rounded=0;orthogonalLoop=1;jettySize=auto;html=1;entryX=1;entryY=0.5;entryDx=0;entryDy=0;dashed=1;endArrow=open;endFill=0;" edge="1" parent="WIyWlLk6GJQsqaUBKTNV-1" source="krm9d7vADcxVfsqMJkB_-5" target="krm9d7vADcxVfsqMJkB_-3">
          <mxGeometry relative="1" as="geometry" />
        </mxCell>
        <mxCell id="8AGIbNtnOzBg6D7uvN0T-21" style="edgeStyle=orthogonalEdgeStyle;rounded=0;orthogonalLoop=1;jettySize=auto;html=1;entryX=0.25;entryY=0;entryDx=0;entryDy=0;endArrow=none;endFill=0;" edge="1" parent="WIyWlLk6GJQsqaUBKTNV-1" source="krm9d7vADcxVfsqMJkB_-11" target="8AGIbNtnOzBg6D7uvN0T-10">
          <mxGeometry relative="1" as="geometry" />
        </mxCell>
        <mxCell id="8AGIbNtnOzBg6D7uvN0T-22" value="" style="group" vertex="1" connectable="0" parent="WIyWlLk6GJQsqaUBKTNV-1">
          <mxGeometry x="1940" y="510" width="60" height="70" as="geometry" />
        </mxCell>
        <mxCell id="8AGIbNtnOzBg6D7uvN0T-10" value="" style="rounded=0;whiteSpace=wrap;html=1;" vertex="1" parent="8AGIbNtnOzBg6D7uvN0T-22">
          <mxGeometry width="40" height="40" as="geometry" />
        </mxCell>
        <mxCell id="8AGIbNtnOzBg6D7uvN0T-16" value="HotelSearchProxy" style="text;html=1;align=center;verticalAlign=middle;whiteSpace=wrap;rounded=0;" vertex="1" parent="8AGIbNtnOzBg6D7uvN0T-22">
          <mxGeometry y="40" width="60" height="30" as="geometry" />
        </mxCell>
        <mxCell id="8AGIbNtnOzBg6D7uvN0T-23" value="" style="group" vertex="1" connectable="0" parent="WIyWlLk6GJQsqaUBKTNV-1">
          <mxGeometry x="1460" y="750" width="60" height="80" as="geometry" />
        </mxCell>
        <mxCell id="8AGIbNtnOzBg6D7uvN0T-24" value="" style="rounded=0;whiteSpace=wrap;html=1;" vertex="1" parent="8AGIbNtnOzBg6D7uvN0T-23">
          <mxGeometry width="40" height="40" as="geometry" />
        </mxCell>
        <mxCell id="8AGIbNtnOzBg6D7uvN0T-29" value="" style="shape=providedRequiredInterface;html=1;verticalLabelPosition=bottom;sketch=0;rotation=-90;" vertex="1" parent="8AGIbNtnOzBg6D7uvN0T-23">
          <mxGeometry x="10" y="60" width="20" height="20" as="geometry" />
        </mxCell>
        <mxCell id="8AGIbNtnOzBg6D7uvN0T-30" style="edgeStyle=orthogonalEdgeStyle;rounded=0;orthogonalLoop=1;jettySize=auto;html=1;exitX=0.5;exitY=1;exitDx=0;exitDy=0;entryX=1;entryY=0.5;entryDx=0;entryDy=0;entryPerimeter=0;endArrow=none;endFill=0;" edge="1" parent="8AGIbNtnOzBg6D7uvN0T-23" source="8AGIbNtnOzBg6D7uvN0T-24" target="8AGIbNtnOzBg6D7uvN0T-29">
          <mxGeometry relative="1" as="geometry">
            <mxPoint x="39.48000000000002" y="200" as="targetPoint" />
            <mxPoint x="19.480000000000018" y="100.00000000000023" as="sourcePoint" />
          </mxGeometry>
        </mxCell>
        <mxCell id="8AGIbNtnOzBg6D7uvN0T-26" value="" style="ellipse;whiteSpace=wrap;html=1;" vertex="1" parent="WIyWlLk6GJQsqaUBKTNV-1">
          <mxGeometry x="2068" y="517.75" width="24.5" height="24.5" as="geometry" />
        </mxCell>
        <mxCell id="8AGIbNtnOzBg6D7uvN0T-27" style="edgeStyle=orthogonalEdgeStyle;rounded=0;orthogonalLoop=1;jettySize=auto;html=1;exitX=1;exitY=0.5;exitDx=0;exitDy=0;entryX=0;entryY=0.5;entryDx=0;entryDy=0;endArrow=none;endFill=0;" edge="1" parent="WIyWlLk6GJQsqaUBKTNV-1" source="8AGIbNtnOzBg6D7uvN0T-10" target="8AGIbNtnOzBg6D7uvN0T-26">
          <mxGeometry relative="1" as="geometry" />
        </mxCell>
        <mxCell id="8AGIbNtnOzBg6D7uvN0T-28" value="" style="group" vertex="1" connectable="0" parent="WIyWlLk6GJQsqaUBKTNV-1">
          <mxGeometry x="1190" y="800" width="840" height="250" as="geometry" />
        </mxCell>
        <mxCell id="8AGIbNtnOzBg6D7uvN0T-0" value="&lt;div align=&quot;left&quot;&gt;«Component»&lt;br&gt;&lt;b&gt;Cache&lt;/b&gt;&lt;/div&gt;" style="html=1;dropTarget=0;whiteSpace=wrap;align=left;verticalAlign=top;" vertex="1" parent="8AGIbNtnOzBg6D7uvN0T-28">
          <mxGeometry x="70" y="40" width="730" height="210" as="geometry" />
        </mxCell>
        <mxCell id="8AGIbNtnOzBg6D7uvN0T-1" value="" style="shape=module;jettyWidth=8;jettyHeight=4;" vertex="1" parent="8AGIbNtnOzBg6D7uvN0T-0">
          <mxGeometry x="1" width="20" height="20" relative="1" as="geometry">
            <mxPoint x="-27" y="7" as="offset" />
          </mxGeometry>
        </mxCell>
        <mxCell id="8AGIbNtnOzBg6D7uvN0T-2" value="«interface»&lt;br&gt;&lt;b&gt;Caching&lt;/b&gt;" style="swimlane;fontStyle=1;align=center;verticalAlign=top;childLayout=stackLayout;horizontal=1;startSize=40;horizontalStack=0;resizeParent=1;resizeParentMax=0;resizeLast=0;collapsible=1;marginBottom=0;whiteSpace=wrap;html=1;" vertex="1" parent="8AGIbNtnOzBg6D7uvN0T-28">
          <mxGeometry x="480" y="60" width="260" height="130" as="geometry">
            <mxRectangle x="420" y="500" width="110" height="40" as="alternateBounds" />
          </mxGeometry>
        </mxCell>
        <mxCell id="8AGIbNtnOzBg6D7uvN0T-3" value="&lt;div&gt;+ cacheResult(key : String, value : List&amp;lt;Object&amp;gt;)&lt;/div&gt;&lt;div&gt;+ get(key : String) : List&amp;lt;Object&amp;gt;&lt;/div&gt;&lt;div&gt;+ remove(key : String) : List&amp;lt;Object&amp;gt;&lt;/div&gt;&lt;div&gt;+ clear()&lt;br&gt;&lt;/div&gt;" style="text;strokeColor=none;fillColor=none;align=left;verticalAlign=top;spacingLeft=4;spacingRight=4;overflow=hidden;rotatable=0;points=[[0,0.5],[1,0.5]];portConstraint=eastwest;whiteSpace=wrap;html=1;" vertex="1" parent="8AGIbNtnOzBg6D7uvN0T-2">
          <mxGeometry y="40" width="260" height="90" as="geometry" />
        </mxCell>
        <mxCell id="8AGIbNtnOzBg6D7uvN0T-12" style="edgeStyle=orthogonalEdgeStyle;rounded=0;orthogonalLoop=1;jettySize=auto;html=1;entryX=0;entryY=0.5;entryDx=0;entryDy=0;dashed=1;endArrow=block;endFill=0;" edge="1" parent="8AGIbNtnOzBg6D7uvN0T-28" source="8AGIbNtnOzBg6D7uvN0T-4" target="8AGIbNtnOzBg6D7uvN0T-3">
          <mxGeometry relative="1" as="geometry" />
        </mxCell>
        <mxCell id="8AGIbNtnOzBg6D7uvN0T-4" value="Cache" style="swimlane;fontStyle=1;align=center;verticalAlign=top;childLayout=stackLayout;horizontal=1;startSize=26;horizontalStack=0;resizeParent=1;resizeParentMax=0;resizeLast=0;collapsible=1;marginBottom=0;whiteSpace=wrap;html=1;" vertex="1" parent="8AGIbNtnOzBg6D7uvN0T-28">
          <mxGeometry x="150" y="70" width="280" height="150" as="geometry" />
        </mxCell>
        <mxCell id="8AGIbNtnOzBg6D7uvN0T-5" value="- storage : HashMap&amp;lt;String, List&amp;lt;Object&amp;gt;&amp;gt;" style="text;strokeColor=none;fillColor=none;align=left;verticalAlign=top;spacingLeft=4;spacingRight=4;overflow=hidden;rotatable=0;points=[[0,0.5],[1,0.5]];portConstraint=eastwest;whiteSpace=wrap;html=1;" vertex="1" parent="8AGIbNtnOzBg6D7uvN0T-4">
          <mxGeometry y="26" width="280" height="26" as="geometry" />
        </mxCell>
        <mxCell id="8AGIbNtnOzBg6D7uvN0T-6" value="" style="line;strokeWidth=1;fillColor=none;align=left;verticalAlign=middle;spacingTop=-1;spacingLeft=3;spacingRight=3;rotatable=0;labelPosition=right;points=[];portConstraint=eastwest;strokeColor=inherit;" vertex="1" parent="8AGIbNtnOzBg6D7uvN0T-4">
          <mxGeometry y="52" width="280" height="8" as="geometry" />
        </mxCell>
        <mxCell id="8AGIbNtnOzBg6D7uvN0T-7" value="&lt;div&gt;+ cacheResult(key : String, value : List&amp;lt;Object&amp;gt;)&lt;/div&gt;&lt;div&gt;+ get(key : String) : List&amp;lt;Object&amp;gt;&lt;/div&gt;&lt;div&gt;+ remove(key : String) : List&amp;lt;Object&amp;gt;&lt;/div&gt;&lt;div&gt;+ clear()&lt;br&gt;&lt;/div&gt;" style="text;strokeColor=none;fillColor=none;align=left;verticalAlign=top;spacingLeft=4;spacingRight=4;overflow=hidden;rotatable=0;points=[[0,0.5],[1,0.5]];portConstraint=eastwest;whiteSpace=wrap;html=1;" vertex="1" parent="8AGIbNtnOzBg6D7uvN0T-4">
          <mxGeometry y="60" width="280" height="90" as="geometry" />
        </mxCell>
        <mxCell id="8AGIbNtnOzBg6D7uvN0T-37" style="edgeStyle=orthogonalEdgeStyle;rounded=0;orthogonalLoop=1;jettySize=auto;html=1;exitX=0;exitY=0.5;exitDx=0;exitDy=0;exitPerimeter=0;" edge="1" parent="WIyWlLk6GJQsqaUBKTNV-1" source="8AGIbNtnOzBg6D7uvN0T-29" target="8AGIbNtnOzBg6D7uvN0T-4">
          <mxGeometry relative="1" as="geometry" />
        </mxCell>
        <mxCell id="8AGIbNtnOzBg6D7uvN0T-35" value="" style="shape=requiredInterface;html=1;verticalLabelPosition=bottom;sketch=0;" vertex="1" parent="WIyWlLk6GJQsqaUBKTNV-1">
          <mxGeometry x="900" y="525" width="10" height="20" as="geometry" />
        </mxCell>
        <mxCell id="8AGIbNtnOzBg6D7uvN0T-34" style="edgeStyle=orthogonalEdgeStyle;rounded=0;orthogonalLoop=1;jettySize=auto;html=1;entryX=1;entryY=0.5;entryDx=0;entryDy=0;entryPerimeter=0;endArrow=none;endFill=0;" edge="1" parent="WIyWlLk6GJQsqaUBKTNV-1" source="8AGIbNtnOzBg6D7uvN0T-33" target="8AGIbNtnOzBg6D7uvN0T-35">
          <mxGeometry relative="1" as="geometry">
            <mxPoint x="790" y="535" as="targetPoint" />
          </mxGeometry>
        </mxCell>
        <mxCell id="8AGIbNtnOzBg6D7uvN0T-44" value="" style="edgeStyle=orthogonalEdgeStyle;rounded=0;orthogonalLoop=1;jettySize=auto;html=1;" edge="1" parent="WIyWlLk6GJQsqaUBKTNV-1" target="8AGIbNtnOzBg6D7uvN0T-33">
          <mxGeometry relative="1" as="geometry">
            <mxPoint x="920" y="535" as="sourcePoint" />
          </mxGeometry>
        </mxCell>
        <mxCell id="8AGIbNtnOzBg6D7uvN0T-36" value="org.postgresql.Driver" style="text;html=1;align=center;verticalAlign=middle;whiteSpace=wrap;rounded=0;" vertex="1" parent="WIyWlLk6GJQsqaUBKTNV-1">
          <mxGeometry x="790" y="520" width="120" height="30" as="geometry" />
        </mxCell>
        <mxCell id="8AGIbNtnOzBg6D7uvN0T-39" style="edgeStyle=orthogonalEdgeStyle;rounded=0;orthogonalLoop=1;jettySize=auto;html=1;entryX=0.5;entryY=0;entryDx=0;entryDy=0;exitX=1;exitY=0.5;exitDx=0;exitDy=0;endArrow=none;endFill=0;" edge="1" parent="WIyWlLk6GJQsqaUBKTNV-1" source="krm9d7vADcxVfsqMJkB_-26" target="8AGIbNtnOzBg6D7uvN0T-24">
          <mxGeometry relative="1" as="geometry">
            <Array as="points">
              <mxPoint x="1480" y="705" />
            </Array>
          </mxGeometry>
        </mxCell>
        <mxCell id="8AGIbNtnOzBg6D7uvN0T-33" value="" style="rounded=0;whiteSpace=wrap;html=1;" vertex="1" parent="WIyWlLk6GJQsqaUBKTNV-1">
          <mxGeometry x="940" y="515" width="40" height="40" as="geometry" />
        </mxCell>
      </root>
    </mxGraphModel>
  </diagram>
</mxfile>
